<mxfile host="app.diagrams.net" modified="2021-05-09T02:48:10.491Z" agent="5.0 (Macintosh; Intel Mac OS X 10_15_7) AppleWebKit/537.36 (KHTML, like Gecko) Chrome/90.0.4430.93 Safari/537.36" etag="g0RZu_iHQ1YHMYHYJZXV" version="14.6.11" type="github">
  <diagram id="Cs9q6yc808jhRWMu1o9q" name="Page-1">
    <mxGraphModel dx="1228" dy="495" grid="1" gridSize="10" guides="1" tooltips="1" connect="1" arrows="1" fold="1" page="1" pageScale="1" pageWidth="850" pageHeight="1100" math="0" shadow="0">
      <root>
        <mxCell id="0" />
        <mxCell id="1" parent="0" />
        <mxCell id="VGwC1PEudW0KpPr-9VnP-1" value="run routing software" style="rounded=1;whiteSpace=wrap;html=1;absoluteArcSize=1;arcSize=14;strokeWidth=2;" vertex="1" parent="1">
          <mxGeometry x="230" y="230" width="100" height="100" as="geometry" />
        </mxCell>
        <mxCell id="VGwC1PEudW0KpPr-9VnP-3" style="edgeStyle=orthogonalEdgeStyle;rounded=0;orthogonalLoop=1;jettySize=auto;html=1;entryX=0;entryY=0.5;entryDx=0;entryDy=0;" edge="1" parent="1" source="VGwC1PEudW0KpPr-9VnP-2" target="VGwC1PEudW0KpPr-9VnP-1">
          <mxGeometry relative="1" as="geometry" />
        </mxCell>
        <mxCell id="VGwC1PEudW0KpPr-9VnP-2" value="start" style="strokeWidth=2;html=1;shape=mxgraph.flowchart.start_2;whiteSpace=wrap;" vertex="1" parent="1">
          <mxGeometry x="60" y="50" width="100" height="100" as="geometry" />
        </mxCell>
      </root>
    </mxGraphModel>
  </diagram>
</mxfile>
